# xmcd
#
# Track frame offsets: 
#        150
#        24210
#        42834
#        63369
#        85768
#        112741
#        130966
#        148433
#        171443
#        190061
#        206075
#        232619
#        254594
#        276123
#        302163
#        333153
#
# Disc length: 4691 seconds
#
# Revision: 0
# Processed by: cddbd v1.5.2PL0 Copyright (c) Steve Scherf et al.
# Submitted via: ExactAudioCopy v0.95b3
#
DISCID=dd125110
DTITLE=Saga  - The Definitive Collection [CD2]
DYEAR=1900
DGENRE=
TTITLE0=Remember When (Chapter 9)
TTITLE1=The Cross
TTITLE2=That's As Far As I'll Go
TTITLE3=Wildest Dreams
TTITLE4=Without You
TTITLE5=Starting All Over
TTITLE6=Slow Motion
TTITLE7=Home
TTITLE8=(You Were) Never Alone (Edit Version)
TTITLE9=Rise And Shine
TTITLE10=Help Me Out
TTITLE11=Sideways
TTITLE12=Out Of The Shadows
TTITLE13=The Security Of Illusion
TTITLE14=Ice Nice
TTITLE15=On The Loose
EXTD=
EXTT0=
EXTT1=
EXTT2=
EXTT3=
EXTT4=
EXTT5=
EXTT6=
EXTT7=
EXTT8=
EXTT9=
EXTT10=
EXTT11=
EXTT12=
EXTT13=
EXTT14=
EXTT15=
PLAYORDER=
